<svg viewBox="0 -35 512 512" xmlns="http://www.w3.org/2000/svg"><path d="m0 0h512v442h-512zm0 0" fill="#fff4ca"/><path d="m258.308594 0h253.691406v442h-253.691406zm0 0" fill="#ffe1ba"/><path d="m0 0h512v112.75h-512zm0 0" fill="#00e8f2"/><path d="m258.308594 0h253.691406v112.75h-253.691406zm0 0" fill="#00cef5"/><g fill="#fec000"><path d="m344.582031 34h30v30h-30zm0 0"/><path d="m392.667969 34h30v30h-30zm0 0"/><path d="m440.25 34h30v30h-30zm0 0"/></g><path d="m166.367188 359.679688-90.121094-75.894532 90.121094-75.890625 19.324218 22.949219-62.871094 52.941406 62.871094 52.945313zm0 0" fill="#ff7a53"/><path d="m345.632812 359.679688-19.324218-22.949219 62.871094-52.945313-62.871094-52.941406 19.324218-22.949219 90.121094 75.890625zm0 0" fill="#ff4f19"/><path d="m305.578125 195.96875-47.269531 118.703125-27.089844 68.027344-27.867188-11.097657 54.957032-138.011718 19.402344-48.71875zm0 0" fill="#ff7a53"/><path d="m277.710938 184.871094 27.867187 11.097656-47.269531 118.703125v-81.082031zm0 0" fill="#ff4f19"/></svg>